<svg width="1500" height="355" viewBox="0 0 1500 355" fill="none" xmlns="http://www.w3.org/2000/svg">
<path d="M324.383 251.684C322.61 247.43 320.838 242.822 319.065 238.922C316.229 232.542 313.394 226.515 310.912 220.844L310.558 220.489C286.098 167.317 259.866 113.435 232.217 60.2623L231.153 58.1354C228.317 52.8182 225.482 47.1464 222.646 41.4747C219.101 35.0939 215.556 28.3587 209.884 21.978C198.541 7.79865 182.234 0 164.865 0C147.141 0 131.189 7.79866 119.491 21.2691C114.173 27.6498 110.274 34.385 106.729 40.7657C103.893 46.4374 101.058 52.1092 98.2217 57.4265L97.1582 59.5534C69.8629 112.726 43.2766 166.608 18.8172 219.78L18.4627 220.489C15.9813 226.161 13.1455 232.187 10.3096 238.568C8.53716 242.467 6.76474 246.721 4.99232 251.329C0.384025 264.445 -1.03391 276.852 0.738509 289.614C4.63784 316.2 22.362 338.532 46.8215 348.458C56.038 352.357 65.6091 354.13 75.5347 354.13C78.3705 354.13 81.9154 353.775 84.7513 353.421C96.4492 352.003 108.502 348.104 120.2 341.368C134.734 333.215 148.558 321.517 164.156 304.502C179.753 321.517 193.932 333.215 208.112 341.368C219.81 348.104 231.862 352.003 243.56 353.421C246.396 353.775 249.941 354.13 252.777 354.13C262.702 354.13 272.628 352.357 281.49 348.458C306.304 338.532 323.674 315.845 327.573 289.614C330.409 277.207 328.991 264.8 324.383 251.684ZM164.51 270.117C145.368 246.012 132.961 223.325 128.707 204.183C126.935 196.03 126.58 188.94 127.644 182.559C128.353 176.888 130.48 171.925 133.316 167.671C140.051 158.1 151.394 152.074 164.51 152.074C177.626 152.074 189.324 157.745 195.705 167.671C198.541 171.925 200.668 176.888 201.377 182.559C202.44 188.94 202.086 196.384 200.313 204.183C196.059 222.971 183.652 245.658 164.51 270.117ZM305.949 286.778C303.468 305.211 291.061 321.163 273.691 328.252C265.184 331.797 255.967 332.861 246.751 331.797C237.888 330.734 229.026 327.898 219.81 322.581C207.048 315.491 194.287 304.502 179.399 288.196C202.795 259.482 216.974 233.251 222.291 209.855C224.773 198.866 225.127 188.94 224.064 179.724C222.646 170.861 219.455 162.708 214.493 155.619C203.503 139.667 185.07 130.45 164.51 130.45C143.95 130.45 125.517 140.021 114.528 155.619C109.565 162.708 106.375 170.861 104.957 179.724C103.539 188.94 103.893 199.22 106.729 209.855C112.047 233.251 126.58 259.837 149.622 288.55C135.088 304.856 121.972 315.845 109.211 322.935C99.9941 328.252 91.132 331.088 82.2699 332.152C72.6988 333.215 63.4822 331.797 55.3291 328.607C37.9594 321.517 25.5524 305.565 23.071 287.132C22.0076 278.27 22.7165 269.408 26.2614 259.482C27.3248 255.938 29.0972 252.393 30.8697 248.139C33.3511 242.467 36.1869 236.441 39.0228 230.415L39.3773 229.706C63.8367 176.888 90.0685 123.006 117.364 70.5424L118.427 68.4155C121.263 63.0982 124.099 57.4264 126.935 52.1092C129.771 46.4374 132.961 41.1202 136.86 36.5119C144.305 28.0043 154.23 23.396 165.219 23.396C176.208 23.396 186.134 28.0043 193.578 36.5119C197.477 41.1202 200.668 46.4374 203.503 52.1092C206.339 57.4264 209.175 63.0982 212.011 68.4155L213.075 70.5424C240.015 123.361 266.247 177.242 290.707 230.06V230.415C293.542 236.087 296.024 242.467 298.86 248.139C300.632 252.393 302.405 255.938 303.468 259.482C306.304 268.699 307.367 277.561 305.949 286.778Z" fill="url(#paint0_linear_18_9)"/>
<path d="M460.68 269.918C448.952 269.918 438.328 266.943 428.809 260.993C419.46 255.044 412.066 246.8 406.626 236.261C401.357 225.552 398.722 213.483 398.722 200.055C398.722 186.456 401.357 174.388 406.626 163.849C412.066 153.31 419.46 144.981 428.809 138.861C438.158 132.742 448.782 129.682 460.68 129.682C466.97 129.682 473.004 130.702 478.784 132.742C484.733 134.612 490.002 137.246 494.592 140.646C499.181 144.046 502.921 147.87 505.811 152.12C508.7 156.199 510.4 160.449 510.91 164.869L501.731 166.653V78.6875H537.682V267.368H503.516L501.986 236.261L509.125 237.281C508.955 241.361 507.511 245.355 504.791 249.265C502.071 253.174 498.417 256.744 493.827 259.974C489.407 263.033 484.308 265.498 478.529 267.368C472.919 269.068 466.97 269.918 460.68 269.918ZM468.585 239.831C475.554 239.831 481.503 238.131 486.433 234.731C491.532 231.332 495.527 226.657 498.417 220.708C501.306 214.758 502.751 207.874 502.751 200.055C502.751 192.066 501.306 185.096 498.417 179.147C495.527 173.028 491.532 168.353 486.433 165.123C481.503 161.724 475.554 160.024 468.585 160.024C461.955 160.024 456.091 161.724 450.991 165.123C445.892 168.353 441.897 173.028 439.008 179.147C436.288 185.096 434.928 192.066 434.928 200.055C434.928 207.874 436.288 214.758 439.008 220.708C441.897 226.657 445.892 231.332 450.991 234.731C456.091 238.131 461.955 239.831 468.585 239.831Z" fill="#4B4B4B"/>
<path d="M636.73 269.918C622.111 269.918 609.278 266.943 598.229 260.993C587.35 255.044 578.851 246.885 572.731 236.516C566.782 226.147 563.807 214.333 563.807 201.075C563.807 190.536 565.507 180.932 568.907 172.263C572.306 163.424 577.066 155.859 583.185 149.57C589.305 143.281 596.529 138.436 604.858 135.037C613.357 131.467 622.621 129.682 632.65 129.682C641.829 129.682 650.243 131.382 657.892 134.782C665.712 138.011 672.426 142.686 678.035 148.805C683.815 154.755 688.234 161.809 691.294 169.968C694.354 178.127 695.798 187.051 695.629 196.74L695.374 207.959H587.01L581.145 185.521H665.542L661.207 190.111V184.756C660.867 179.997 659.337 175.832 656.618 172.263C654.068 168.693 650.753 165.888 646.674 163.849C642.594 161.639 638.09 160.534 633.16 160.534C625.511 160.534 619.052 162.064 613.782 165.123C608.683 168.013 604.773 172.263 602.053 177.872C599.504 183.312 598.229 190.111 598.229 198.27C598.229 206.259 599.929 213.313 603.328 219.433C606.728 225.382 611.572 229.972 617.862 233.201C624.321 236.431 631.885 238.046 640.554 238.046C646.504 238.046 651.943 237.111 656.873 235.241C661.802 233.371 667.156 230.142 672.936 225.552L690.019 249.775C685.26 254.024 679.905 257.679 673.956 260.739C668.006 263.798 661.887 266.093 655.598 267.623C649.308 269.153 643.019 269.918 636.73 269.918Z" fill="#4B4B4B"/>
<path d="M786.377 269.918C771.759 269.918 758.925 266.943 747.876 260.993C736.997 255.044 728.498 246.885 722.379 236.516C716.429 226.147 713.455 214.333 713.455 201.075C713.455 190.536 715.155 180.932 718.554 172.263C721.954 163.424 726.713 155.859 732.833 149.57C738.952 143.281 746.176 138.436 754.505 135.037C763.005 131.467 772.269 129.682 782.298 129.682C791.477 129.682 799.891 131.382 807.54 134.782C815.359 138.011 822.073 142.686 827.683 148.805C833.462 154.755 837.882 161.809 840.941 169.968C844.001 178.127 845.446 187.051 845.276 196.74L845.021 207.959H736.657L730.793 185.521H815.189L810.855 190.111V184.756C810.515 179.997 808.985 175.832 806.265 172.263C803.715 168.693 800.401 165.888 796.321 163.849C792.242 161.639 787.737 160.534 782.808 160.534C775.158 160.534 768.699 162.064 763.43 165.123C758.33 168.013 754.42 172.263 751.701 177.872C749.151 183.312 747.876 190.111 747.876 198.27C747.876 206.259 749.576 213.313 752.976 219.433C756.375 225.382 761.22 229.972 767.509 233.201C773.968 236.431 781.533 238.046 790.202 238.046C796.151 238.046 801.591 237.111 806.52 235.241C811.45 233.371 816.804 230.142 822.583 225.552L839.667 249.775C834.907 254.024 829.553 257.679 823.603 260.739C817.654 263.798 811.535 266.093 805.245 267.623C798.956 269.153 792.667 269.918 786.377 269.918Z" fill="#4B4B4B"/>
<path d="M872.026 323.462V132.487H906.958L908.233 162.574L901.603 160.279C902.623 155.01 905.428 150.08 910.017 145.491C914.777 140.901 920.641 137.161 927.611 134.272C934.58 131.382 941.889 129.937 949.538 129.937C961.267 129.937 971.636 132.912 980.645 138.861C989.824 144.811 997.048 153.055 1002.32 163.594C1007.59 174.133 1010.22 186.286 1010.22 200.055C1010.22 213.313 1007.59 225.212 1002.32 235.751C997.048 246.29 989.824 254.619 980.645 260.739C971.466 266.688 961.097 269.663 949.538 269.663C941.719 269.663 934.24 268.133 927.101 265.073C920.131 262.013 914.182 258.104 909.252 253.344C904.323 248.585 901.263 243.4 900.073 237.791L908.488 234.221V323.462H872.026ZM941.379 238.556C948.178 238.556 954.043 236.941 958.972 233.711C964.072 230.482 967.981 225.977 970.701 220.198C973.591 214.248 975.036 207.534 975.036 200.055C975.036 192.406 973.591 185.691 970.701 179.912C967.981 173.963 964.072 169.373 958.972 166.143C954.043 162.914 948.178 161.299 941.379 161.299C934.58 161.299 928.63 162.914 923.531 166.143C918.432 169.373 914.437 173.878 911.547 179.657C908.658 185.436 907.213 192.236 907.213 200.055C907.213 207.534 908.658 214.248 911.547 220.198C914.437 225.977 918.432 230.482 923.531 233.711C928.63 236.941 934.58 238.556 941.379 238.556Z" fill="#4B4B4B"/>
<path d="M1115.38 269.918C1109.43 269.918 1103.65 269.068 1098.04 267.368C1092.43 265.498 1087.33 263.118 1082.74 260.229C1078.15 257.339 1074.33 254.024 1071.27 250.285C1068.21 246.545 1066.25 242.635 1065.4 238.556L1073.56 235.241L1072.03 266.858H1037.61V78.6875H1074.07V163.849L1066.93 161.044C1067.95 156.964 1069.91 153.055 1072.8 149.315C1075.69 145.576 1079.34 142.261 1083.76 139.371C1088.18 136.311 1093.02 133.932 1098.29 132.232C1103.56 130.532 1108.92 129.682 1114.36 129.682C1126.26 129.682 1136.79 132.742 1145.97 138.861C1155.15 144.811 1162.38 153.14 1167.65 163.849C1173.09 174.388 1175.81 186.371 1175.81 199.8C1175.81 213.398 1173.17 225.467 1167.9 236.006C1162.63 246.545 1155.41 254.874 1146.23 260.993C1137.22 266.943 1126.94 269.918 1115.38 269.918ZM1106.71 239.066C1113.51 239.066 1119.37 237.451 1124.3 234.221C1129.4 230.822 1133.39 226.232 1136.28 220.453C1139.17 214.503 1140.62 207.619 1140.62 199.8C1140.62 192.151 1139.17 185.436 1136.28 179.657C1133.56 173.708 1129.66 169.118 1124.56 165.888C1119.46 162.489 1113.51 160.789 1106.71 160.789C1100.08 160.789 1094.21 162.489 1089.11 165.888C1084.01 169.118 1080.02 173.708 1077.13 179.657C1074.24 185.436 1072.8 192.151 1072.8 199.8C1072.8 207.619 1074.24 214.503 1077.13 220.453C1080.02 226.232 1084.01 230.822 1089.11 234.221C1094.21 237.451 1100.08 239.066 1106.71 239.066Z" fill="#4B4B4B"/>
<path d="M1203.19 267.368V132.487H1238.12L1239.14 160.024L1232.01 163.084C1233.7 156.964 1237.02 151.44 1241.95 146.51C1246.88 141.411 1252.74 137.331 1259.54 134.272C1266.34 131.212 1273.4 129.682 1280.7 129.682C1290.9 129.682 1299.4 131.722 1306.2 135.802C1313.17 139.881 1318.36 146.085 1321.76 154.415C1325.33 162.574 1327.11 172.773 1327.11 185.011V267.368H1290.9V187.561C1290.9 181.442 1290.05 176.342 1288.35 172.263C1286.65 168.183 1284.1 165.208 1280.7 163.339C1277.31 161.469 1272.97 160.619 1267.7 160.789C1263.62 160.789 1259.88 161.469 1256.48 162.829C1253.08 164.019 1250.02 165.803 1247.3 168.183C1244.75 170.563 1242.8 173.283 1241.44 176.342C1240.08 179.402 1239.4 182.802 1239.4 186.541V267.368H1221.3C1217.56 267.368 1214.16 267.368 1211.1 267.368C1208.04 267.368 1205.4 267.368 1203.19 267.368Z" fill="#4B4B4B"/>
<path d="M1439.57 269.918C1433.62 269.918 1427.84 269.068 1422.23 267.368C1416.62 265.498 1411.52 263.118 1406.93 260.229C1402.35 257.339 1398.52 254.024 1395.46 250.285C1392.4 246.545 1390.45 242.635 1389.6 238.556L1397.76 235.241L1396.23 266.858H1361.8V78.6875H1398.27V163.849L1391.13 161.044C1392.15 156.964 1394.1 153.055 1396.99 149.315C1399.88 145.576 1403.54 142.261 1407.95 139.371C1412.37 136.311 1417.22 133.932 1422.49 132.232C1427.76 130.532 1433.11 129.682 1438.55 129.682C1450.45 129.682 1460.99 132.742 1470.17 138.861C1479.35 144.811 1486.57 153.14 1491.84 163.849C1497.28 174.388 1500 186.371 1500 199.8C1500 213.398 1497.37 225.467 1492.1 236.006C1486.83 246.545 1479.6 254.874 1470.42 260.993C1461.41 266.943 1451.13 269.918 1439.57 269.918ZM1430.9 239.066C1437.7 239.066 1443.57 237.451 1448.5 234.221C1453.59 230.822 1457.59 226.232 1460.48 220.453C1463.37 214.503 1464.81 207.619 1464.81 199.8C1464.81 192.151 1463.37 185.436 1460.48 179.657C1457.76 173.708 1453.85 169.118 1448.75 165.888C1443.65 162.489 1437.7 160.789 1430.9 160.789C1424.27 160.789 1418.41 162.489 1413.31 165.888C1408.21 169.118 1404.21 173.708 1401.33 179.657C1398.44 185.436 1396.99 192.151 1396.99 199.8C1396.99 207.619 1398.44 214.503 1401.33 220.453C1404.21 226.232 1408.21 230.822 1413.31 234.221C1418.41 237.451 1424.27 239.066 1430.9 239.066Z" fill="#4B4B4B"/>
<defs>
<linearGradient id="paint0_linear_18_9" x1="254.5" y1="151.5" x2="53" y2="248" gradientUnits="userSpaceOnUse">
<stop offset="0.103747" stop-color="#00639C"/>
<stop offset="0.329967" stop-color="#77B52E"/>
<stop offset="0.679176" stop-color="#7FBB27"/>
<stop offset="1" stop-color="#DD3923"/>
<stop offset="1" stop-color="#DD3923"/>
</linearGradient>
</defs>
</svg>
